Coordinates
nRows=8
nColumns=38

# SIMM Motion File Header:
name Coordinates
datacolumns 38
datarows 8
otherdata 1
range 0.64549999999999996000 0.65249999999999997000

Units are S.I. units (second, meters, Newtons, ...)
Angles are in degrees.

endheader
time	pelvis_tilt	pelvis_list	pelvis_rotation	pelvis_tx	pelvis_ty	pelvis_tz	hip_flexion_r	hip_adduction_r	hip_rotation_r	knee_angle_r	ankle_angle_r	subtalar_angle_r	mtp_angle_r	hip_flexion_l	hip_adduction_l	hip_rotation_l	knee_angle_l	ankle_angle_l	subtalar_angle_l	mtp_angle_l	lumbar_extension	lumbar_bending	lumbar_rotation	arm_flex_r	arm_add_r	arm_rot_r	elbow_flex_r	pro_sup_r	wrist_flex_r	wrist_dev_r	arm_flex_l	arm_add_l	arm_rot_l	elbow_flex_l	pro_sup_l	wrist_flex_l	wrist_dev_l
      0.64549999999999996000	     -4.66882055635468430000	     -4.20977702179005850000	     -5.08214926824917330000	      1.13461586955658130000	      0.99460050308472725000	     -0.36399684785419278000	     30.94342734142902500000	      9.76437595016865070000	      4.10706939799432740000	     -9.68185820522927010000	     14.07585983517082800000	      0.00000000000000000000	      0.00000000000000000000	    -26.90841066682297700000	      9.19707369444332380000	     13.31639176976956500000	    -34.92327075946438000000	    -26.87269237412641900000	      0.00000000000000000000	      0.00000000000000000000	    -12.94715897691096100000	     10.42111518803118000000	     -8.25660987169652570000	    -54.33538108452233900000	    -16.24265508482256900000	    -12.56693362211874800000	    138.01856295701992000000	     99.75364953335598300000	      0.00000000000000000000	      0.00000000000000000000	    -11.49964565474752800000	    -21.39050962950288000000	     12.42236648558275500000	    137.70065264303088000000	     89.31348585838546200000	      0.00000000000000000000	      0.00000000000000000000
      0.64649999999999996000	     -4.57922352954525900000	     -4.19722717544625110000	     -5.09961005107888530000	      1.13481683345411870000	      0.99429920933821336000	     -0.36393569786037983000	     30.68505584194711800000	      9.75134332803074600000	      4.19279261703181840000	     -9.47559220099147660000	     14.05989053358722200000	      0.00000000000000000084	     -0.00000000000000000164	    -26.74276780487796000000	      9.22356752842866000000	     12.83386094078807500000	    -35.70119789474218700000	    -26.78724676225165200000	     -0.00000000000000000015	      0.00000000000000000087	    -13.05199788454756400000	     10.39216533756301400000	     -8.16536891994523550000	    -54.09039707992676000000	    -16.33890886743899500000	    -12.49573841417203300000	    137.91153259491003000000	     99.77301745710086300000	      0.00000000000000000002	     -0.00000000000000000001	    -11.64830228854225200000	    -21.36148809932310400000	     12.39370007933261400000	    137.48287317914816000000	     89.38270143179960300000	     -0.00000000000000000023	      0.00000000000000000109
      0.64749999999999996000	     -4.49100659721089630000	     -4.18722447255953960000	     -5.11529541105259970000	      1.13501402073902070000	      0.99398707507230843000	     -0.36387266810259822000	     30.43277556209520900000	      9.74018010479435500000	      4.27214038243298070000	     -9.28972313117873230000	     14.04072818749586200000	      0.00000000000000000356	     -0.00000000000000000626	    -26.57191370855567000000	      9.24064794067703940000	     12.34631698020453600000	    -36.48342708598342200000	    -26.70088738065511400000	     -0.00000000000000000394	      0.00000000000000000394	    -13.15514535743398400000	     10.36586883181301400000	     -8.07526744373375930000	    -53.84282078866342400000	    -16.43616128348275400000	    -12.42286009124731000000	    137.80218478612434000000	     99.79001265574700600000	      0.00000000000000000014	     -0.00000000000000000058	    -11.79795660077235900000	    -21.33084927967881600000	     12.36234812263728400000	    137.26233019118050000000	     89.45285919653389300000	     -0.00000000000000000071	      0.00000000000000000278
      0.64849999999999997000	     -4.40419253833505130000	     -4.17972750656485650000	     -5.12918915973161750000	      1.13520741868841870000	      0.99366404552088483000	     -0.36380786000882992000	     30.18672990645502100000	      9.73088671199885620000	      4.34493733274029470000	     -9.12441725384406870000	     14.01798909924287700000	      0.00000000000000000717	     -0.00000000000000000831	    -26.39612712679084800000	      9.24836283852052430000	     11.85469922558220900000	    -37.26944451050619000000	    -26.61347607801307900000	     -0.00000000000000001101	      0.00000000000000000762	    -13.25657622674450100000	     10.34221114738714300000	     -7.98634256987031500000	    -53.59266434393956000000	    -16.53444983835708400000	    -12.34828171184905600000	    137.69053319121485000000	     99.80454957147685500000	      0.00000000000000000067	     -0.00000000000000000076	    -11.94862272234244600000	    -21.29859670839186600000	     12.32832445300017100000	    137.03905539740293000000	     89.52395139029165700000	     -0.00000000000000000137	      0.00000000000000000557
      0.64949999999999997000	     -4.31881998279339020000	     -4.17467353271513900000	     -5.14112133676094540000	      1.13539703312633860000	      0.99333003302747014000	     -0.36374165951922716000	     29.94708249535085900000	      9.72335259644036220000	      4.41086828303421450000	     -8.97980456697803220000	     13.99141566571076300000	      0.00000000000000001227	     -0.00000000000000001048	    -26.21568058259068600000	      9.24675601922563220000	     11.36017129784479700000	    -38.05872134166617100000	    -26.52477269122511700000	     -0.00000000000000002118	      0.00000000000000001094	    -13.35621739236126800000	     10.32119285234082000000	     -7.89879249333425370000	    -53.33993823996841900000	    -16.63381217348474600000	    -12.27198111904407800000	    137.57658738497057000000	     99.81653225811719200000	      0.00000000000000000076	     -0.00000000000000000075	    -12.10032409582091300000	    -21.26474029207199500000	     12.29164774095798900000	    136.81308033227347000000	     89.59597454744879000000	     -0.00000000000000000158	      0.00000000000000000803
      0.65049999999999997000	     -4.23489148735933440000	     -4.17199439650429490000	     -5.15096918932741940000	      1.13558286911704110000	      0.99298500876009999000	     -0.36367438000871755000	     29.71395690678525300000	      9.71748310863666550000	      4.46967299533493810000	     -8.85599900694240640000	     13.96081639813954400000	      0.00000000000000001789	     -0.00000000000000001027	    -26.03089179775800900000	      9.23591730329910380000	     10.86384477216337500000	    -38.85070287495018700000	    -26.43455958968339200000	     -0.00000000000000003038	      0.00000000000000001483	    -13.45404544924220900000	     10.30279525501675600000	     -7.81276198859197010000	    -53.08465021623883500000	    -16.73428421892228000000	    -12.19394123352779900000	    137.46036160516110000000	     99.82586117291211300000	      0.00000000000000000023	     -0.00000000000000000092	    -12.25307200076288400000	    -21.22929279548530300000	     12.25234083222659000000	    136.58443653927867000000	     89.66892475842524800000	     -0.00000000000000000210	      0.00000000000000001047
      0.65149999999999997000	     -4.15239868471112670000	     -4.17162147707382940000	     -5.15865034626142190000	      1.13576492462647200000	      0.99262896437549619000	     -0.36360627392119765000	     29.48746573843291000000	      9.71319959253901290000	      4.52112932307883230000	     -8.75310330033171270000	     13.92599011527335800000	      0.00000000000000002371	     -0.00000000000000001202	    -25.84209026892448300000	      9.21597160284881410000	     10.36677679234859400000	    -39.64482795047258200000	    -26.34262868877090500000	     -0.00000000000000003786	      0.00000000000000001974	    -13.55005780298670500000	     10.28698976682668400000	     -7.72835028461515620000	    -52.82680890650496500000	    -16.83590092677208400000	    -12.11415142957934400000	    137.34187256775667000000	     99.83243291963083300000	     -0.00000000000000000057	     -0.00000000000000000242	    -12.40686849210503700000	    -21.19226628706664400000	     12.21043157883815900000	    136.35315167968463000000	     89.74280090535110300000	     -0.00000000000000000281	      0.00000000000000001335
      0.65249999999999997000	     -4.07132952102576610000	     -4.17350078376391130000	     -5.16411973168794350000	      1.13594319631752620000	      0.99226190259020086000	     -0.36353753683909251000	     29.26771520052291500000	      9.71045156436937340000	      4.56504200296333100000	     -8.67120516746301820000	     13.88669943300522300000	      0.00000000000000002966	     -0.00000000000000001760	    -25.64961024179088500000	      9.18706066731879640000	      9.86996127088323050000	    -40.44053592543747300000	    -26.24877203013780400000	     -0.00000000000000004249	      0.00000000000000002607	    -13.64426568130544800000	     10.27375591645568200000	     -7.64561146567795640000	    -52.56642753154171300000	    -16.93869829060234600000	    -12.03261077728888400000	    137.22114097279655000000	     99.83613832744745800000	     -0.00000000000000000187	     -0.00000000000000000404	    -12.56170618025715200000	    -21.15366796764275000000	     12.16595419118787000000	    136.11924715323894000000	     89.81760660055307700000	     -0.00000000000000000390	      0.00000000000000001752
